<svg width="24" height="22" viewBox="0 0 24 22" fill="none" xmlns="http://www.w3.org/2000/svg">
<path d="M17.8896 19.8499H6.10955C5.79187 19.8502 5.48326 19.7439 5.23309 19.5481C4.98291 19.3523 4.80562 19.0783 4.72955 18.7699L2.07955 8.15987C2.05369 8.05658 2.05174 7.94875 2.07383 7.84459C2.09593 7.74044 2.1415 7.64269 2.20707 7.5588C2.27264 7.47491 2.35649 7.40708 2.45223 7.36048C2.54797 7.31387 2.65307 7.28973 2.75955 7.28987H21.2396C21.346 7.28973 21.4511 7.31387 21.5469 7.36048C21.6426 7.40708 21.7265 7.47491 21.792 7.5588C21.8576 7.64269 21.9032 7.74044 21.9253 7.84459C21.9474 7.94875 21.9454 8.05658 21.9196 8.15987L19.2696 18.7699C19.1935 19.0783 19.0162 19.3523 18.766 19.5481C18.5158 19.7439 18.2072 19.8502 17.8896 19.8499V19.8499Z" stroke="#151515" stroke-width="2.5" stroke-linecap="round" stroke-linejoin="round"/>
<path d="M9.79941 2.14993L6.89941 7.28993" stroke="#151515" stroke-width="2.5" stroke-linecap="round" stroke-linejoin="round"/>
<path d="M13.8799 2.14993L16.7899 7.28993" stroke="#151515" stroke-width="2.5" stroke-linecap="round" stroke-linejoin="round"/>
</svg>
